<svg xmlns="http://www.w3.org/2000/svg" viewBox="0 0 1200 627" width="1200" height="627">
  <defs>
    <linearGradient id="bg" x1="0%" y1="0%" x2="100%" y2="100%">
      <stop offset="0%" style="stop-color:#04050A"/>
      <stop offset="100%" style="stop-color:#0C0E18"/>
    </linearGradient>
    <linearGradient id="goldLine" x1="0%" y1="0%" x2="100%" y2="0%">
      <stop offset="0%" style="stop-color:#D4A843;stop-opacity:1"/>
      <stop offset="100%" style="stop-color:#D4A843;stop-opacity:0"/>
    </linearGradient>
    <linearGradient id="goldGlow" x1="0%" y1="0%" x2="100%" y2="100%">
      <stop offset="0%" style="stop-color:#D4A843;stop-opacity:0.15"/>
      <stop offset="100%" style="stop-color:#D4A843;stop-opacity:0"/>
    </linearGradient>
    <filter id="glow">
      <feGaussianBlur stdDeviation="8" result="blur"/>
      <feMerge><feMergeNode in="blur"/><feMergeNode in="SourceGraphic"/></feMerge>
    </filter>
  </defs>

  <!-- Background -->
  <rect width="1200" height="627" fill="url(#bg)"/>

  <!-- Grid lines -->
  <g stroke="#D4A843" stroke-width="0.4" opacity="0.06">
    <line x1="0" y1="60" x2="1200" y2="60"/>
    <line x1="0" y1="120" x2="1200" y2="120"/>
    <line x1="0" y1="180" x2="1200" y2="180"/>
    <line x1="0" y1="240" x2="1200" y2="240"/>
    <line x1="0" y1="300" x2="1200" y2="300"/>
    <line x1="0" y1="360" x2="1200" y2="360"/>
    <line x1="0" y1="420" x2="1200" y2="420"/>
    <line x1="0" y1="480" x2="1200" y2="480"/>
    <line x1="0" y1="540" x2="1200" y2="540"/>
    <line x1="60" y1="0" x2="60" y2="627"/>
    <line x1="120" y1="0" x2="120" y2="627"/>
    <line x1="180" y1="0" x2="180" y2="627"/>
    <line x1="240" y1="0" x2="240" y2="627"/>
    <line x1="300" y1="0" x2="300" y2="627"/>
    <line x1="360" y1="0" x2="360" y2="627"/>
    <line x1="420" y1="0" x2="420" y2="627"/>
    <line x1="480" y1="0" x2="480" y2="627"/>
    <line x1="540" y1="0" x2="540" y2="627"/>
    <line x1="600" y1="0" x2="600" y2="627"/>
    <line x1="660" y1="0" x2="660" y2="627"/>
    <line x1="720" y1="0" x2="720" y2="627"/>
    <line x1="780" y1="0" x2="780" y2="627"/>
    <line x1="840" y1="0" x2="840" y2="627"/>
    <line x1="900" y1="0" x2="900" y2="627"/>
    <line x1="960" y1="0" x2="960" y2="627"/>
    <line x1="1020" y1="0" x2="1020" y2="627"/>
    <line x1="1080" y1="0" x2="1080" y2="627"/>
    <line x1="1140" y1="0" x2="1140" y2="627"/>
  </g>

  <!-- Gold glow top-right -->
  <circle cx="1050" cy="120" r="300" fill="url(#goldGlow)" opacity="0.8"/>

  <!-- Gold accent top bar -->
  <rect x="0" y="0" width="1200" height="3" fill="url(#goldLine)"/>

  <!-- Left gold bar accent -->
  <rect x="80" y="100" width="3" height="430" fill="#D4A843" opacity="0.4"/>

  <!-- INITIALS BADGE -->
  <rect x="80" y="100" width="80" height="80" fill="none" stroke="#D4A843" stroke-width="1.5" opacity="0.5"/>
  <text x="120" y="152" font-family="Georgia, serif" font-size="36" font-weight="bold" fill="#D4A843" text-anchor="middle">DB</text>

  <!-- NAME -->
  <text x="185" y="152" font-family="Georgia, serif" font-size="62" font-weight="bold" fill="#EEEEF2" letter-spacing="-1">Durani Blake</text>

  <!-- GOLD RULE -->
  <rect x="185" y="168" width="500" height="1.5" fill="#D4A843" opacity="0.5"/>

  <!-- TITLE LINE -->
  <text x="185" y="205" font-family="Arial, sans-serif" font-size="22" fill="#9AA0B2" letter-spacing="3" font-weight="400">FINANCE &amp; ANALYTICS PROFESSIONAL</text>

  <!-- CREDENTIAL CHIPS -->
  <rect x="185" y="228" width="130" height="28" rx="2" fill="none" stroke="#D4A843" stroke-width="1" opacity="0.5"/>
  <text x="250" y="247" font-family="Arial, sans-serif" font-size="13" fill="#D4A843" text-anchor="middle" letter-spacing="1" font-weight="600">MSc FINANCE</text>

  <rect x="328" y="228" width="120" height="28" rx="2" fill="none" stroke="#D4A843" stroke-width="1" opacity="0.5"/>
  <text x="388" y="247" font-family="Arial, sans-serif" font-size="13" fill="#D4A843" text-anchor="middle" letter-spacing="1" font-weight="600">CFA LEVEL I</text>

  <rect x="461" y="228" width="175" height="28" rx="2" fill="none" stroke="#D4A843" stroke-width="1" opacity="0.5"/>
  <text x="548" y="247" font-family="Arial, sans-serif" font-size="13" fill="#D4A843" text-anchor="middle" letter-spacing="1" font-weight="600">BLOOMBERG CERT.</text>

  <rect x="649" y="228" width="165" height="28" rx="2" fill="none" stroke="#D4A843" stroke-width="1" opacity="0.5"/>
  <text x="731" y="247" font-family="Arial, sans-serif" font-size="13" fill="#D4A843" text-anchor="middle" letter-spacing="1" font-weight="600">GSU ROBINSON</text>

  <!-- DIVIDER -->
  <rect x="80" y="290" width="1040" height="1" fill="#D4A843" opacity="0.15"/>

  <!-- METRIC CARDS -->
  <!-- Card 1 -->
  <rect x="185" y="315" width="220" height="110" fill="#0C0E18" stroke="#D4A843" stroke-width="1" opacity="0.9" rx="0"/>
  <rect x="185" y="315" width="220" height="3" fill="#D4A843"/>
  <text x="295" y="365" font-family="Georgia, serif" font-size="38" font-weight="bold" fill="#D4A843" text-anchor="middle">+18.4%</text>
  <text x="295" y="390" font-family="Arial, sans-serif" font-size="11" fill="#6B7080" text-anchor="middle" letter-spacing="2" font-weight="600">EXCESS RETURN</text>
  <text x="295" y="410" font-family="Arial, sans-serif" font-size="10" fill="#4A5060" text-anchor="middle">Hedge Fund Simulation</text>

  <!-- Card 2 -->
  <rect x="425" y="315" width="220" height="110" fill="#0C0E18" stroke="#D4A843" stroke-width="1" opacity="0.9"/>
  <rect x="425" y="315" width="220" height="3" fill="#D4A843"/>
  <text x="535" y="365" font-family="Georgia, serif" font-size="38" font-weight="bold" fill="#D4A843" text-anchor="middle">3.44</text>
  <text x="535" y="390" font-family="Arial, sans-serif" font-size="11" fill="#6B7080" text-anchor="middle" letter-spacing="2" font-weight="600">SHARPE RATIO</text>
  <text x="535" y="410" font-family="Arial, sans-serif" font-size="10" fill="#4A5060" text-anchor="middle">$250K Portfolio</text>

  <!-- Card 3 -->
  <rect x="665" y="315" width="220" height="110" fill="#0C0E18" stroke="#D4A843" stroke-width="1" opacity="0.9"/>
  <rect x="665" y="315" width="220" height="3" fill="#D4A843"/>
  <text x="775" y="365" font-family="Georgia, serif" font-size="38" font-weight="bold" fill="#D4A843" text-anchor="middle">25yr</text>
  <text x="775" y="390" font-family="Arial, sans-serif" font-size="11" fill="#6B7080" text-anchor="middle" letter-spacing="2" font-weight="600">DATASET BUILT</text>
  <text x="775" y="410" font-family="Arial, sans-serif" font-size="10" fill="#4A5060" text-anchor="middle">S&amp;P 1500 · 1999–2024</text>

  <!-- Card 4 -->
  <rect x="905" y="315" width="215" height="110" fill="#0C0E18" stroke="#D4A843" stroke-width="1" opacity="0.9"/>
  <rect x="905" y="315" width="215" height="3" fill="#D4A843"/>
  <text x="1012" y="365" font-family="Georgia, serif" font-size="38" font-weight="bold" fill="#D4A843" text-anchor="middle">6</text>
  <text x="1012" y="390" font-family="Arial, sans-serif" font-size="11" fill="#6B7080" text-anchor="middle" letter-spacing="2" font-weight="600">PROJECTS</text>
  <text x="1012" y="410" font-family="Arial, sans-serif" font-size="10" fill="#4A5060" text-anchor="middle">Finance &amp; Engineering</text>

  <!-- BOTTOM BAR -->
  <rect x="0" y="550" width="1200" height="77" fill="#080A0F" opacity="0.9"/>
  <rect x="0" y="550" width="1200" height="1" fill="#D4A843" opacity="0.2"/>

  <!-- Bottom left: Georgia State -->
  <text x="185" y="585" font-family="Arial, sans-serif" font-size="13" fill="#6B7080" letter-spacing="1">Georgia State University · J. Mack Robinson College of Business</text>
  <text x="185" y="610" font-family="Arial, sans-serif" font-size="13" fill="#6B7080" letter-spacing="1">University of the West Indies · BSc Electrical Power Engineering</text>

  <!-- Bottom right: github -->
  <text x="1120" y="600" font-family="Arial, sans-serif" font-size="13" fill="#D4A843" text-anchor="end" letter-spacing="1" opacity="0.7">github.com/duraniblake</text>

  <!-- Bottom right dot -->
  <circle cx="1130" cy="596" r="4" fill="#D4A843" opacity="0.6" filter="url(#glow)"/>
</svg>
